<?xml version="1.0" encoding="utf-8"?>
<!-- Generator: Adobe Illustrator 16.0.2, SVG Export Plug-In . SVG Version: 6.00 Build 0)  -->
<!DOCTYPE svg PUBLIC "-//W3C//DTD SVG 1.1//EN" "http://www.w3.org/Graphics/SVG/1.1/DTD/svg11.dtd">
<svg version="1.1" id="Layer_1" xmlns="http://www.w3.org/2000/svg" xmlns:xlink="http://www.w3.org/1999/xlink" x="0px" y="0px"
	 width="595.28px" height="841.89px" viewBox="0 0 595.28 841.89" enable-background="new 0 0 595.28 841.89" xml:space="preserve">
<g display="none">
</g>
<path display="none" fill="none" stroke="#607AB7" stroke-miterlimit="10" d="M98.1,50.199c2.298,1.428,4.407,3.133,6.278,5.086
	h6.088c-2.344-3.219-5.244-5.992-8.561-8.192C100.724,48.234,99.452,49.271,98.1,50.199"/>
<path display="none" fill="none" stroke="#607AB7" stroke-miterlimit="10" d="M81.073,105.851v-0.099
	c-3.942-0.192-7.815-1.12-11.418-2.73h-0.096l-0.096-0.095c-7.26-3.358-12.9-9.448-15.692-16.944
	c-0.973-2.7-1.581-5.517-1.808-8.376c-1.474-0.722-2.824-1.68-3.996-2.829c-0.277-0.227-0.531-0.479-0.761-0.752
	c-0.213,4.615,0.498,9.227,2.094,13.564c3.128,8.563,9.524,15.534,17.786,19.389l0.284,0.099c6.051,2.829,12.793,3.842,19.408,2.914
	c-2-0.901-3.808-2.18-5.326-3.765L81.073,105.851"/>
<path display="none" fill="none" stroke="#607AB7" stroke-miterlimit="10" d="M111.324,83.816l1.808,8.192
	c0.257-0.449,0.477-0.924,0.656-1.411l0.097-0.281c1.82-3.881,2.919-8.064,3.243-12.338c-1.585,0.479-3.208,0.824-4.851,1.034
	C112.097,80.641,111.778,82.248,111.324,83.816"/>
<g transform="translate(0.088)">
	<path display="none" fill="none" stroke="#607AB7" stroke-miterlimit="10" d="M10.554,10.401h84.218v71.707H10.554V10.401z"/>
	<g>
		<path fill="none" stroke="#607AB7" stroke-miterlimit="10" d="M58.577,82.107c-0.716,0-1.431-0.047-2.14-0.142
			c-1.423-0.175-2.807-0.589-4.092-1.222c-1.649-0.735-3.138-1.795-4.376-3.107c-0.925-0.939-1.695-2.021-2.282-3.205
			c-1.562,0.018-3.122-0.106-4.66-0.376c-2.036-0.397-4.019-1.025-5.908-1.88c-4.695-2.167-8.587-5.757-11.122-10.265
			c-2.09-3.872-3.138-8.223-3.042-12.62c-0.844-0.086-1.674-0.278-2.472-0.564c-1.568-0.568-2.997-1.466-4.188-2.638
			c-1.813-1.714-3.046-3.953-3.524-6.401c-0.491-2.457-0.156-5.005,0.952-7.248l0.475-0.851l0.952-1.786l1.902,0.846l27.403,12.616
			c2.691,1.166,5.14,2.829,7.22,4.898c1.819,1.876,3.071,4.227,3.615,6.781l2.844,13.09c1.234,0.304,2.418,0.778,3.52,1.411
			c1.151,0.641,2.163,1.504,2.975,2.542l-3.33,2.539c-0.438-0.611-1.028-1.099-1.712-1.41c-1.129-0.607-2.351-1.021-3.616-1.227
			l-1.333-0.282l-0.284-1.313l-2.662-12.333c-0.585,0.291-1.189,0.543-1.808,0.752C47.144,58.906,46.386,59,45.624,59
			c-1.152,0.009-2.292-0.218-3.357-0.653l-0.474-0.192c-2.073-0.936-3.684-2.667-4.473-4.799c-0.794-2.043-0.725-4.321,0.193-6.313
			l0.094-0.277c0.119-0.295,0.274-0.573,0.464-0.83l0.013-0.018L15.146,35.346c-0.396,1.184-0.462,2.453-0.192,3.671
			c0.298,1.619,1.097,3.103,2.284,4.239c0.766,0.735,1.671,1.312,2.663,1.696c0.462,0.171,0.94,0.295,1.427,0.372h0.094
			c0.048-0.278,0.166-0.701,0.282-1.115c0.116-0.41,0.241-0.855,0.289-1.146l2.282,1.038l1.427,0.658l-0.191,0.654
			c-0.587,2.274-0.748,4.638-0.474,6.971c0.312,2.667,1.119,5.252,2.378,7.624c2.083,3.765,5.314,6.77,9.225,8.568
			c1.544,0.714,3.174,1.223,4.852,1.509c1.258,0.205,2.533,0.312,3.809,0.316c0.417,0,0.83-0.013,1.232-0.034l1.532-0.095
			l0.572,1.415c0.456,1.205,1.17,2.299,2.092,3.201c0.881,0.966,1.953,1.739,3.148,2.273c0.921,0.466,1.923,0.756,2.951,0.851
			c0.854,0.076,1.711,0.106,2.569,0.094l9.037-6.218l-3.424-15.91l-0.096-0.377c0.435-1.628,0.656-3.308,0.656-4.995
			c0.107-7.903-4.487-15.112-11.692-18.36c-0.538-0.265-1-0.448-1.446-0.628l-0.085-0.03c-0.521-0.214-1.063-0.372-1.617-0.47
			c-0.529-0.171-1.069-0.295-1.617-0.376h-0.19c-1.268,2.145-3.16,3.854-5.424,4.897c-1.542,0.705-3.219,1.068-4.914,1.068
			c-0.777,0-1.552-0.073-2.315-0.219c-2.092-0.529-4.13-1.256-6.089-2.162c-1.815-0.73-3.564-1.615-5.228-2.646
			c-2.147-1.637-3.66-3.966-4.28-6.594c-0.604-2.615-0.337-5.358,0.76-7.812c0.935-1.924,2.343-3.577,4.092-4.804
			c1.777-1.214,3.846-1.927,5.993-2.073h0.192l32.436,0.094h3.614l-1.899,3.106c-2.153,3.684-5.237,6.74-8.942,8.855
			c-3.674,2.115-7.843,3.222-12.082,3.2H31.995l0.096-4.239h12.834c3.501,0.013,6.944-0.893,9.986-2.624
			c1.95-1.142,3.714-2.568,5.234-4.235H31.799c-1.336,0.09-2.623,0.543-3.719,1.313c-1.143,0.777-2.057,1.851-2.649,3.098
			c-0.745,1.586-0.948,3.377-0.578,5.086c0.432,1.705,1.402,3.223,2.766,4.329c1.391,0.765,2.819,1.457,4.282,2.072
			c1.683,0.787,3.434,1.415,5.23,1.885c0.487,0.081,0.981,0.124,1.476,0.124c1.13,0.009,2.25-0.227,3.282-0.688
			c1.45-0.637,2.653-1.731,3.426-3.111l0.57-1.133l0.657-1.312l1.531,0.188l0.908,0.132c0.319,0.052,0.657,0.099,0.994,0.149
			c0.647,0.103,1.285,0.261,1.906,0.47c0.343,0.099,0.656,0.197,0.978,0.291c0.321,0.099,0.603,0.184,0.924,0.277
			c0.253,0.107,0.494,0.201,0.727,0.291c0.374,0.149,0.728,0.286,1.08,0.462c3.029,1.393,5.746,3.376,7.992,5.842h31.201
			l-1.902,3.106c-1.939,3.261-4.609,6.034-7.8,8.094c-3.155,2.108-6.783,3.403-10.559,3.767h-0.189l-0.19-4.048h0.19
			c3.086-0.351,6.045-1.415,8.644-3.115c1.544-1.039,2.949-2.274,4.184-3.672H66.707c0.046,0.09,0.116,0.206,0.184,0.316
			c0.068,0.111,0.148,0.244,0.199,0.342c2.47,4.685,3.339,10.049,2.474,15.271l-0.19,1.128l3.614,16.667l0.284,1.313l-1.142,0.752
			L61.572,81.59l-0.38,0.282l-0.477,0.094C60.005,82.061,59.292,82.107,58.577,82.107z M41.787,47.692
			c-0.055,0.081-0.111,0.154-0.164,0.218c-0.132,0.158-0.238,0.338-0.313,0.526c-0.533,1.056-0.602,2.286-0.188,3.393
			c0.399,1.111,1.218,2.03,2.28,2.556c0.608,0.278,1.269,0.428,1.938,0.437c0.375,0,0.748-0.056,1.108-0.158
			c0.621-0.167,1.202-0.458,1.71-0.851c-0.345-1.03-0.932-1.966-1.71-2.731C45.101,49.692,43.525,48.548,41.787,47.692z"/>
	</g>
</g>
<path fill="#607AB7" stroke="#607AB7" stroke-miterlimit="10" d="M119.306,46.842c-0.835-0.486-1.729-0.868-2.662-1.129
	c-0.952-0.282-1.808-0.564-2.664-0.851c-0.751-0.175-1.461-0.495-2.094-0.94c-0.568-0.371-0.896-1.017-0.857-1.696
	c0.011-0.406,0.143-0.799,0.381-1.128c0.216-0.32,0.512-0.581,0.858-0.752c0.342-0.235,0.731-0.397,1.142-0.475
	c0.408-0.072,0.823-0.103,1.238-0.094c0.715-0.005,1.423,0.124,2.092,0.38c0.702,0.235,1.326,0.658,1.807,1.223l3.52-4.047
	c-0.968-0.924-2.143-1.599-3.425-1.971c-1.299-0.376-2.644-0.568-3.995-0.572c-1.156,0.017-2.307,0.175-3.424,0.47
	c-1.063,0.325-2.061,0.833-2.95,1.496c-0.866,0.658-1.578,1.495-2.083,2.457c-0.517,1.056-0.776,2.218-0.759,3.389
	c-0.052,1.129,0.243,2.248,0.844,3.205c0.525,0.817,1.245,1.493,2.092,1.967c0.854,0.543,1.784,0.958,2.76,1.227
	c0.951,0.282,1.9,0.568,2.759,0.851c0.741,0.248,1.444,0.594,2.092,1.034c0.568,0.372,0.896,1.018,0.858,1.696
	c0.019,0.394-0.081,0.787-0.285,1.129c-0.217,0.32-0.512,0.581-0.857,0.756c-0.389,0.21-0.805,0.368-1.236,0.466
	c-0.437,0.111-0.884,0.176-1.333,0.192c-0.886-0.008-1.761-0.2-2.568-0.568c-0.833-0.371-1.555-0.957-2.092-1.692l-3.805,4.146
	c1.092,1.039,2.388,1.842,3.805,2.354c1.403,0.505,2.885,0.761,4.376,0.757c1.22-0.009,2.434-0.167,3.614-0.47
	c1.055-0.347,2.05-0.855,2.95-1.505c0.917-0.603,1.646-1.453,2.103-2.453c0.518-1.085,0.778-2.277,0.762-3.482
	C122.405,50,121.25,47.906,119.306,46.842"/>
<path fill="#607AB7" stroke="#607AB7" stroke-miterlimit="10" d="M130.249,67.273h-5.137V43.076h4.948v2.162h0.084
	c0.117-0.162,0.241-0.316,0.374-0.466c0.132-0.145,0.263-0.29,0.393-0.474c0.233-0.21,0.483-0.397,0.744-0.564
	c0.137-0.094,0.273-0.188,0.401-0.282c0.453-0.256,0.923-0.475,1.41-0.653h0.018c0.549-0.192,1.128-0.291,1.709-0.287
	c1.147-0.042,2.289,0.18,3.333,0.658c0.992,0.368,1.872,0.987,2.559,1.791c0.732,0.799,1.312,1.724,1.711,2.731
	c0.389,1.086,0.581,2.235,0.57,3.389c0.003,1.124-0.189,2.24-0.57,3.295c-0.358,1.018-0.876,1.971-1.532,2.825
	c-0.634,0.829-1.446,1.5-2.378,1.97c-1.004,0.505-2.113,0.761-3.235,0.753c-1.034-0.009-2.06-0.167-3.045-0.471
	c-0.938-0.273-1.75-0.876-2.281-1.692h-0.075v9.505V67.273z M134.054,47.219c-1.126-0.061-2.225,0.35-3.036,1.128
	c-0.705,0.846-1.077,1.919-1.043,3.017c-0.034,1.099,0.338,2.171,1.043,3.013c0.813,0.787,1.919,1.197,3.047,1.133
	c1.128,0.064,2.23-0.346,3.043-1.133c0.75-0.815,1.128-1.905,1.047-3.013c0.034-1.098-0.338-2.175-1.047-3.017
	C136.292,47.561,135.184,47.154,134.054,47.219z"/>
<path fill="#607AB7" stroke="#607AB7" stroke-miterlimit="10" d="M154.599,60.018c-1.235,0.021-2.464-0.205-3.615-0.658
	c-1.095-0.385-2.099-0.991-2.947-1.786c-0.853-0.757-1.531-1.688-2-2.727c-1.015-2.278-1.015-4.876,0-7.154
	c0.466-1.043,1.147-1.976,2-2.731c0.874-0.761,1.87-1.367,2.947-1.791c1.162-0.414,2.382-0.632,3.615-0.658
	c1.115-0.042,2.222,0.185,3.235,0.658c0.953,0.394,1.801,1.005,2.474,1.786c0.714,0.782,1.237,1.715,1.53,2.732
	c0.397,1.149,0.586,2.359,0.56,3.577v1.603h-11.984c0.168,0.914,0.639,1.743,1.333,2.358c0.725,0.586,1.635,0.89,2.566,0.851
	c0.767,0.018,1.523-0.18,2.188-0.564c0.599-0.367,1.12-0.846,1.532-1.414l3.604,2.637c-0.846,1.043-1.919,1.881-3.139,2.444
	C157.274,59.735,155.945,60.021,154.599,60.018z M154.125,46.363c-0.523-0.004-1.043,0.09-1.532,0.282
	c-0.41,0.158-0.797,0.381-1.143,0.654c-0.282,0.29-0.534,0.606-0.761,0.944c-0.184,0.346-0.282,0.734-0.286,1.128h6.844
	c0.002-0.773-0.297-1.517-0.84-2.068c-0.579-0.646-1.419-0.987-2.282-0.932V46.363z"/>
<path fill="#607AB7" stroke="#607AB7" stroke-miterlimit="10" d="M173.721,47.124c0.536-0.021,1.066,0.111,1.532,0.376
	c0.41,0.239,0.765,0.561,1.044,0.94l3.417-3.855c-0.808-0.773-1.782-1.354-2.846-1.697c-1.026-0.281-2.084-0.439-3.147-0.47
	c-1.233,0.025-2.455,0.248-3.618,0.658c-1.076,0.423-2.072,1.03-2.948,1.786c-0.851,0.761-1.53,1.693-1.998,2.736
	c-1.013,2.277-1.013,4.876,0,7.154c0.468,1.038,1.147,1.97,1.998,2.73c0.851,0.79,1.854,1.393,2.948,1.782
	c1.152,0.453,2.381,0.679,3.618,0.658c1.066-0.018,2.124-0.171,3.147-0.462c1.101-0.261,2.094-0.854,2.846-1.696l-3.427-3.577
	c-0.329,0.304-0.68,0.59-1.048,0.851c-0.463,0.265-0.995,0.397-1.529,0.376c-1.129,0.064-2.231-0.347-3.043-1.128
	c-0.707-0.847-1.077-1.919-1.041-3.018c-0.079-1.106,0.3-2.196,1.05-3.013c0.81-0.786,1.914-1.196,3.043-1.133"/>
<path fill="#607AB7" stroke="#607AB7" stroke-miterlimit="10" d="M188.941,38.179h-5.137v4.897h-3.329v4.048h3.329v7.816
	c-0.009,0.813,0.154,1.611,0.475,2.354c0.342,0.586,0.795,1.099,1.333,1.509c0.579,0.394,1.223,0.68,1.902,0.847
	c0.773,0.196,1.572,0.29,2.369,0.281c0.606,0.018,1.212-0.013,1.814-0.09c0.619-0.025,1.23-0.153,1.808-0.376v-4.243
	c-0.318,0.196-0.676,0.325-1.047,0.376c-0.342,0.068-0.692,0.099-1.043,0.086c-0.453,0.051-0.91-0.014-1.329-0.185
	c-0.314-0.141-0.579-0.367-0.763-0.658c-0.152-0.294-0.248-0.615-0.284-0.944c-0.084-0.401-0.115-0.812-0.097-1.222v-5.552h4.564
	v-4.048h-4.566V38.179z"/>
<path fill="#607AB7" stroke="#607AB7" stroke-miterlimit="10" d="M206.347,42.696c-1-0.018-1.987,0.243-2.847,0.756
	c-0.848,0.568-1.536,1.347-1.995,2.261h-0.115v-2.637h-5.032v16.472h5.139V52.68c-0.021-0.752,0.011-1.509,0.094-2.261
	c0.061-0.628,0.252-1.239,0.57-1.786c0.327-0.496,0.791-0.885,1.332-1.128c0.756-0.295,1.568-0.424,2.376-0.376
	c0.385-0.018,0.769,0.017,1.143,0.094c0.284,0.094,0.656,0.188,1.045,0.282v-4.711c-0.282,0-0.568-0.098-0.853-0.098H206.347z"/>
<path fill="#607AB7" stroke="#607AB7" stroke-miterlimit="10" d="M218.527,60.111c-1.237,0.021-2.466-0.2-3.615-0.658
	c-1.097-0.385-2.099-0.995-2.949-1.786c-0.851-0.761-1.534-1.688-2-2.727c-0.543-1.115-0.804-2.342-0.761-3.581
	c-0.004-1.23,0.257-2.453,0.761-3.577c0.466-1.038,1.149-1.971,2-2.731c0.872-0.761,1.867-1.363,2.944-1.786
	c1.165-0.415,2.385-0.633,3.62-0.658c1.234-0.021,2.464,0.2,3.613,0.658c1.096,0.384,2.101,0.991,2.95,1.786
	c0.851,0.756,1.53,1.688,1.994,2.731c1.015,2.278,1.015,4.876,0,7.154c-0.464,1.043-1.144,1.974-1.994,2.73
	c-0.876,0.761-1.871,1.363-2.95,1.786C220.977,59.863,219.757,60.086,218.527,60.111z M218.432,47.201
	c-1.128-0.064-2.232,0.347-3.045,1.133c-0.711,0.842-1.087,1.923-1.049,3.025c-0.034,1.099,0.34,2.171,1.049,3.013
	c0.814,0.782,1.917,1.192,3.045,1.128c1.127,0.068,2.231-0.342,3.043-1.124c0.75-0.82,1.128-1.91,1.045-3.017
	c0.034-1.099-0.338-2.167-1.045-3.009c-0.812-0.786-1.914-1.196-3.043-1.132V47.201z"/>
<path fill="#607AB7" stroke="#607AB7" stroke-miterlimit="10" d="M244.971,54.564c-0.91,0.47-1.928,0.696-2.951,0.654
	c-0.916,0.004-1.827-0.188-2.662-0.561c-0.822-0.393-1.566-0.936-2.188-1.603c-0.604-0.734-1.087-1.56-1.427-2.448
	c-0.389-0.991-0.584-2.043-0.57-3.107c-0.014-1.063,0.182-2.125,0.572-3.116c0.34-0.91,0.859-1.743,1.532-2.444
	c0.604-0.688,1.351-1.235,2.188-1.603c0.865-0.376,1.804-0.564,2.748-0.547c0.912-0.056,1.825,0.106,2.665,0.47
	c0.73,0.363,1.38,0.876,1.899,1.505l4.282-3.21c-0.53-0.637-1.137-1.205-1.806-1.696c-0.646-0.466-1.351-0.847-2.095-1.128
	c-0.698-0.287-1.436-0.479-2.188-0.564c-0.725-0.106-1.455-0.167-2.188-0.188c-1.777-0.017-3.547,0.27-5.229,0.847
	c-1.566,0.525-2.993,1.397-4.18,2.543c-1.232,1.072-2.184,2.432-2.767,3.957c-0.662,1.68-0.985,3.47-0.953,5.274
	c-0.041,1.804,0.282,3.599,0.953,5.273c0.667,1.479,1.604,2.82,2.767,3.953c1.203,1.128,2.631,1.996,4.187,2.538
	c1.68,0.581,3.446,0.868,5.222,0.851c1.671-0.025,3.318-0.376,4.855-1.034c1.538-0.739,2.873-1.833,3.897-3.196l-4.471-3.304
	C246.509,53.449,245.795,54.09,244.971,54.564"/>
<path fill="#607AB7" stroke="#607AB7" stroke-miterlimit="10" d="M261.712,60.111c-1.237,0.021-2.464-0.2-3.613-0.658
	c-1.098-0.385-2.101-0.995-2.948-1.786c-0.851-0.761-1.534-1.688-2-2.727c-0.543-1.115-0.804-2.342-0.761-3.581
	c-0.005-1.23,0.254-2.453,0.761-3.577c0.466-1.038,1.147-1.971,1.998-2.731c0.873-0.761,1.869-1.363,2.946-1.786
	c1.162-0.415,2.385-0.633,3.617-0.658c1.237-0.021,2.463,0.2,3.614,0.658c1.098,0.384,2.1,0.991,2.949,1.786
	c0.852,0.756,1.533,1.688,1.996,2.731c1.016,2.278,1.016,4.876,0,7.154c-0.463,1.043-1.145,1.974-1.996,2.734
	c-0.873,0.757-1.871,1.363-2.949,1.782C264.166,59.863,262.945,60.086,261.712,60.111z M261.617,47.201
	c-1.129-0.064-2.231,0.347-3.043,1.133c-0.712,0.842-1.086,1.923-1.047,3.025c-0.034,1.099,0.34,2.171,1.047,3.013
	c0.812,0.786,1.914,1.192,3.043,1.128c1.127,0.064,2.231-0.342,3.047-1.128c0.748-0.816,1.125-1.906,1.045-3.013
	c0.035-1.099-0.338-2.171-1.045-3.013c-0.816-0.786-1.92-1.192-3.047-1.128V47.201z"/>
<path fill="#607AB7" stroke="#607AB7" stroke-miterlimit="10" d="M276.078,34.978c-0.781-0.004-1.535,0.3-2.094,0.851
	c-0.564,0.534-0.877,1.291-0.855,2.068c-0.004,0.778,0.305,1.525,0.855,2.077c0.551,0.56,1.309,0.867,2.094,0.846
	c0.779,0,1.525-0.303,2.08-0.85c1.145-1.146,1.145-2.996,0-4.142C277.617,35.269,276.859,34.956,276.078,34.978"/>
<path fill="none" d="M10.449,84.94h287.984v-74.54H10.449V84.94z"/>
<g>
	<path fill="#607AB7" stroke="#607AB7" stroke-miterlimit="10" d="M273.604,59.65h5.139V43.076h-5.139V59.65z"/>
	<path fill="#607AB7" stroke="#607AB7" stroke-miterlimit="10" d="M297.195,44.867c-0.465-0.731-1.125-1.316-1.904-1.692
		c-0.988-0.424-2.061-0.62-3.137-0.568c-0.578,0.004-1.152,0.098-1.701,0.281c-0.508,0.142-0.99,0.363-1.426,0.658
		c-0.367,0.257-0.719,0.539-1.047,0.847c-0.25,0.29-0.471,0.606-0.656,0.94h-0.117v-2.257h-4.852v16.479h5.137v-8.196
		c-0.02-0.534,0.014-1.072,0.096-1.603c0.102-0.457,0.262-0.897,0.475-1.313c0.244-0.38,0.568-0.7,0.951-0.939
		c0.488-0.291,1.053-0.424,1.617-0.376c0.539-0.048,1.078,0.085,1.533,0.376c0.326,0.286,0.584,0.637,0.76,1.034
		c0.186,0.448,0.283,0.927,0.287,1.41c0.072,0.5,0.102,1.004,0.086,1.509v8.094h5.139v-9.133c0.006-1.043-0.088-2.081-0.289-3.106
		C298.006,46.44,297.684,45.606,297.195,44.867"/>
</g>
</svg>
